<?xml version="1.0" standalone="no"?>
<!DOCTYPE svg PUBLIC "-//W3C//DTD SVG 20010904//EN"
 "http://www.w3.org/TR/2001/REC-SVG-20010904/DTD/svg10.dtd">
<svg version="1.0" xmlns="http://www.w3.org/2000/svg"
width="100%" height="100%" viewBox="0 0 800.000000 600.000000"
 preserveAspectRatio="xMidYMid meet">

<g transform="translate(0.000000,600.000000) scale(0.100000,-0.100000)"
>
<path d="M3904 4516 c-92 -18 -135 -32 -209 -69 -197 -97 -334 -255 -407 -467
-30 -89 -32 -103 -33 -235 0 -165 13 -226 79 -360 101 -205 268 -344 493 -411
114 -34 279 -38 393 -10 271 67 480 258 573 524 26 75 31 105 35 217 4 110 1
144 -17 215 -69 279 -287 503 -563 580 -95 26 -251 34 -344 16z m306 -102
c315 -72 548 -389 527 -719 -19 -312 -235 -566 -545 -640 -97 -24 -268 -16
-362 15 -232 78 -403 259 -468 494 -12 43 -16 97 -16 181 1 101 5 133 27 200
50 151 150 286 275 368 106 71 167 93 332 121 39 7 158 -4 230 -20z"/>
<path d="M3271 4340 c-96 -115 -163 -253 -202 -417 -26 -106 -29 -322 -6 -415
8 -32 12 -58 8 -58 -3 0 -37 27 -74 60 -109 96 -177 182 -177 225 0 30 -17 6
-29 -39 -24 -97 19 -187 152 -318 l78 -78 -68 26 c-242 90 -339 138 -400 197
-38 35 -44 22 -18 -39 47 -112 152 -199 342 -284 384 -170 423 -200 423 -331
0 -94 -79 -200 -159 -215 -20 -4 -57 -3 -84 3 -57 12 -70 0 -26 -23 23 -11 49
-15 88 -12 105 7 184 85 219 214 l18 67 37 -36 c27 -28 37 -46 39 -78 l3 -41
27 21 c15 12 30 36 33 55 l7 32 96 -48 c53 -26 142 -60 197 -75 87 -23 120
-26 250 -26 210 0 295 23 545 150 3 2 6 -12 7 -30 2 -21 12 -40 30 -56 l28
-24 5 39 c6 43 26 78 58 100 19 13 20 11 27 -24 16 -89 76 -178 150 -224 48
-29 129 -24 190 11 131 75 154 234 45 309 -41 28 -59 28 -101 -1 -28 -18 -34
-29 -34 -57 0 -27 6 -38 27 -49 23 -13 30 -13 53 -1 26 14 29 13 51 -13 13
-16 24 -40 24 -54 0 -64 -86 -133 -164 -133 -134 0 -236 176 -177 305 32 72
85 104 379 234 238 104 327 180 376 319 8 23 13 42 10 42 -3 0 -26 -17 -50
-39 -55 -48 -151 -96 -319 -159 l-131 -48 87 86 c107 106 143 170 143 255 0
33 -6 71 -14 85 l-14 25 -8 -36 c-13 -50 -83 -135 -172 -207 -42 -34 -78 -62
-81 -62 -2 0 0 11 5 24 4 13 14 70 21 126 27 224 -33 465 -164 662 -30 46 -70
97 -88 113 -21 20 -15 9 20 -35 67 -84 133 -214 166 -326 36 -121 45 -309 20
-439 -56 -299 -247 -550 -520 -686 -268 -133 -577 -137 -843 -9 -111 53 -162
89 -260 184 -130 126 -213 270 -264 457 -33 120 -33 345 0 469 29 109 107 268
172 348 27 34 48 62 45 62 -2 0 -27 -27 -54 -60z"/>
<path d="M2964 2961 c-36 -22 -74 -93 -74 -137 0 -37 31 -103 59 -128 31 -28
35 -14 11 34 -24 46 -21 74 8 111 18 21 22 22 50 10 67 -28 112 48 59 97 -34
32 -76 37 -113 13z"/>
<path d="M2930 2439 c0 -6 17 -25 37 -42 21 -18 55 -49 77 -70 26 -25 42 -34
47 -26 11 18 -8 70 -38 101 -35 37 -123 63 -123 37z"/>
<path d="M2437 2341 c-61 -68 -73 -160 -33 -248 24 -50 81 -104 127 -118 10
-4 19 -13 19 -21 0 -16 -31 -79 -55 -108 -23 -30 -31 -10 -11 31 20 41 16 46
-47 63 -112 31 -217 -69 -188 -178 26 -96 148 -132 257 -77 27 14 52 25 56 25
4 0 43 -32 85 -71 151 -139 221 -168 320 -135 27 9 64 29 82 44 38 31 36 46
-12 90 l-25 24 -45 -26 c-81 -48 -117 -33 -262 107 l-76 73 26 59 c14 33 31
62 36 66 6 3 38 9 72 13 77 8 172 51 231 106 47 43 96 128 96 165 0 23 -39 47
-96 59 -30 7 -32 6 -37 -32 -8 -50 -41 -98 -95 -139 -41 -31 -106 -52 -120
-39 -12 13 78 174 118 210 29 26 35 36 23 40 -21 8 -49 -9 -91 -57 -20 -23
-51 -56 -69 -74 -17 -18 -50 -63 -72 -100 -54 -90 -78 -119 -88 -110 -8 8 -3
19 75 152 22 39 43 81 46 95 4 14 -14 -14 -39 -62 -51 -98 -64 -106 -109 -59
-41 43 -46 104 -12 154 14 21 26 41 26 44 0 14 -52 73 -64 73 -8 0 -30 -18
-49 -39z m1 -513 c20 -17 14 -44 -13 -56 -34 -16 -40 -15 -59 4 -20 20 -20 38
0 59 16 16 46 13 72 -7z"/>
<path d="M5320 2308 c-11 -18 -20 -36 -20 -40 0 -3 -13 -36 -30 -73 l-30 -67
-31 26 c-33 28 -86 34 -132 17 -46 -18 -98 -82 -143 -176 -50 -105 -125 -195
-163 -195 -21 0 -23 3 -17 33 4 17 24 78 46 134 45 114 50 163 20 193 -28 28
-92 26 -157 -5 -51 -23 -54 -23 -98 -8 -55 18 -72 13 -89 -29 -8 -18 -28 -67
-45 -108 -52 -126 -152 -210 -254 -212 -47 -1 -84 17 -93 44 -9 29 4 38 55 38
107 0 182 43 215 122 43 103 -13 178 -133 178 -107 0 -178 -56 -246 -195 -44
-91 -101 -162 -159 -200 -14 -10 -29 -15 -32 -12 -4 3 26 85 65 181 39 96 71
182 71 190 0 21 -9 20 -72 -4 -29 -11 -56 -20 -59 -20 -3 0 -21 14 -39 30 -26
24 -43 30 -77 30 -84 0 -140 -51 -203 -185 -60 -126 -145 -195 -244 -197 -50
-1 -82 14 -91 42 -10 31 0 37 74 42 86 6 146 39 179 96 28 51 28 78 0 86 -29
8 -84 53 -76 62 4 3 27 -5 52 -19 41 -23 46 -24 46 -8 0 19 -31 51 -67 70 -31
16 -101 15 -85 -1 23 -23 12 -28 -24 -11 -34 17 -37 17 -80 -6 -83 -45 -144
-148 -152 -261 -8 -113 40 -168 152 -177 83 -7 160 16 225 67 37 29 51 36 51
24 0 -26 31 -71 57 -83 35 -16 64 -13 101 9 31 19 40 17 24 -6 -4 -6 -39 -28
-78 -47 -103 -52 -140 -105 -114 -168 23 -54 107 -76 169 -45 40 21 90 82 118
143 21 46 36 61 108 108 46 30 95 69 109 85 13 17 27 30 29 30 3 0 7 -13 10
-30 4 -20 20 -38 48 -57 38 -25 52 -28 123 -28 65 0 91 5 131 25 28 13 54 26
59 28 5 3 7 -2 3 -10 -9 -25 13 -38 63 -38 59 0 66 8 120 140 23 58 48 119 56
135 17 36 71 75 103 75 28 0 26 -14 -20 -132 -28 -73 -37 -146 -23 -183 8 -21
56 -45 89 -45 40 0 96 28 137 67 l37 36 7 -27 c9 -36 59 -76 95 -76 31 0 82
22 111 47 16 14 21 13 53 -16 62 -54 151 -35 231 50 49 52 124 162 144 210
l15 34 7 -40 c10 -60 9 -118 -3 -154 -9 -25 -16 -31 -40 -31 -33 0 -89 -25
-89 -40 0 -16 29 -38 66 -50 49 -16 140 -7 191 18 45 23 128 110 157 164 37
68 -13 98 -52 31 -30 -54 -79 -109 -88 -101 -4 5 -10 83 -13 175 l-6 167 -43
13 c-24 6 -48 10 -55 7 -7 -2 -32 -44 -57 -92 -93 -179 -188 -302 -234 -302
-30 0 -17 46 79 284 53 131 93 241 90 246 -4 6 -31 10 -61 10 -51 0 -56 -2
-74 -32z m-2038 -263 c-8 -50 -68 -96 -106 -82 -14 6 -15 11 -5 29 23 45 63
79 89 76 19 -2 24 -8 22 -23z m446 -8 c3 -29 -28 -121 -56 -165 -19 -29 -69
-55 -89 -48 -39 15 17 181 76 227 35 28 65 21 69 -14z m512 21 c-1 -7 -9 -29
-18 -48 -13 -27 -26 -37 -54 -44 -21 -5 -41 -7 -44 -3 -11 11 17 66 44 87 28
22 72 27 72 8z m951 -11 c9 -20 5 -38 -20 -99 -36 -85 -65 -118 -107 -121 -28
-2 -29 0 -28 38 1 48 43 144 78 180 32 32 63 32 77 2z m-1621 -433 c0 -15 -42
-73 -57 -78 -21 -8 -38 8 -30 28 10 24 87 69 87 50z"/>
</g>
</svg>
