<?xml version="1.0" standalone="no"?>
<svg version="1.0" xmlns="http://www.w3.org/2000/svg"
 width="300" height="300" viewBox="0 0 633.000000 417.000000"
 preserveAspectRatio="xMidYMid meet">

<g transform="translate(0.000000,417.000000) scale(0.100000,-0.100000)"
fill="#000000" stroke="none">
<path d="M3390 2805 l-13 -45 -224 0 -225 0 4 -25 5 -25 -93 0 c-141 0 -134
15 -134 -285 l0 -245 -25 0 c-33 0 -33 -29 1 -69 l26 -31 448 0 448 0 26 31
c34 40 34 69 1 69 l-25 0 0 245 c0 299 7 285 -130 285 -49 0 -90 4 -90 8 0 5
7 32 15 60 14 47 18 52 45 52 17 0 30 5 30 10 0 6 -17 10 -39 10 -37 0 -39 -2
-51 -45z m-346 -91 c3 -9 6 -27 6 -40 0 -21 -5 -24 -34 -24 -27 0 -35 5 -40
24 -3 13 -9 31 -12 40 -5 13 1 16 34 16 27 0 42 -5 46 -16z m106 -24 c0 -39
-1 -40 -34 -40 -36 0 -46 12 -46 56 0 21 4 24 40 24 l40 0 0 -40z m105 8 c-9
-43 -17 -50 -51 -46 -26 3 -29 8 -32 41 l-3 37 46 0 47 0 -7 -32z m101 -5
c-11 -33 -17 -38 -45 -38 -17 0 -31 3 -31 8 0 4 0 21 0 37 0 29 2 30 44 30
l45 0 -13 -37z m-381 -93 l22 -75 152 -3 c151 -3 152 -3 149 -25 -3 -21 -8
-22 -134 -27 -138 -5 -164 -14 -164 -53 0 -28 28 -57 56 -57 27 0 59 42 50 65
-4 12 6 15 64 15 58 0 68 -3 64 -15 -4 -8 1 -26 10 -40 22 -34 60 -33 83 1 15
24 16 29 1 53 -14 26 -13 34 16 132 l32 104 102 3 102 3 0 -251 0 -250 -420 0
-420 0 0 250 0 251 106 -3 107 -3 22 -75z m85 13 c0 -10 3 -28 6 -40 6 -20 3
-23 -24 -23 -23 0 -32 5 -37 23 -17 60 -18 57 19 57 28 0 36 -4 36 -17z m90
-23 c0 -38 -2 -40 -30 -40 -25 0 -30 4 -30 24 0 13 -3 31 -6 40 -5 13 1 16 30
16 35 0 36 -1 36 -40z m90 23 c0 -45 -12 -63 -41 -63 -27 0 -29 3 -29 40 0 39
1 40 35 40 27 0 35 -4 35 -17z m87 -23 c-10 -35 -15 -40 -39 -40 -29 0 -34 12
-22 58 5 17 14 22 39 22 l32 0 -10 -40z m-249 -176 c2 -12 -4 -24 -12 -27 -20
-8 -47 19 -39 39 8 22 47 13 51 -12z m232 2 c0 -29 -24 -40 -44 -20 -20 20 -9
44 20 44 19 0 24 -5 24 -24z m314 -281 l-16 -25 -449 0 c-433 0 -449 1 -459
19 -5 11 -10 22 -10 25 0 3 214 6 475 6 l475 0 -16 -25z"/>
<path d="M3222 1867 c-27 -29 -52 -99 -52 -146 0 -37 39 -133 59 -145 15 -10
14 -5 -6 35 -11 20 -19 64 -21 109 -3 64 0 82 21 123 13 26 23 47 22 47 -1 0
-11 -10 -23 -23z"/>
<path d="M4107 1843 c22 -42 24 -58 21 -129 -3 -54 -10 -91 -21 -108 -20 -29
-22 -40 -6 -30 20 12 59 108 59 145 0 50 -27 122 -55 149 l-23 22 25 -49z"/>
<path d="M2490 1850 c0 -5 5 -10 10 -10 6 0 10 5 10 10 0 6 -4 10 -10 10 -5 0
-10 -4 -10 -10z"/>
<path d="M3331 1854 c-1 -5 13 -20 29 -32 30 -22 30 -22 30 -2 0 14 -7 20 -24
20 -13 0 -27 6 -29 13 -3 6 -6 7 -6 1z"/>
<path d="M3850 1850 c-8 -5 -10 -10 -3 -10 18 0 17 -184 -1 -200 -41 -33 -87
38 -70 108 7 30 15 38 39 43 24 5 26 7 7 8 -35 2 -59 -15 -71 -50 -13 -38 -5
-76 22 -106 17 -19 29 -22 74 -20 29 2 56 6 60 10 3 4 1 7 -5 7 -9 0 -12 33
-12 110 0 113 -4 123 -40 100z"/>
<path d="M2743 1815 c-12 -14 -17 -25 -12 -25 5 0 9 -33 9 -73 0 -43 5 -78 12
-85 14 -14 44 -16 52 -3 4 5 -3 7 -14 4 -19 -5 -20 0 -20 75 0 76 1 81 23 85
22 4 22 4 0 6 -13 0 -23 9 -25 21 -3 18 -4 18 -25 -5z"/>
<path d="M3282 1828 c-7 -7 -12 -24 -12 -39 0 -28 20 -48 79 -81 48 -26 37
-78 -16 -78 -20 0 -22 -2 -11 -14 7 -8 15 -11 18 -7 3 3 14 11 24 17 58 31 50
83 -19 116 -49 24 -67 57 -45 83 15 18 -1 20 -18 3z"/>
<path d="M2167 1788 c-9 -6 -9 -8 1 -8 10 0 13 -25 10 -115 -2 -72 1 -115 7
-114 17 1 51 18 38 18 -8 1 -13 14 -13 31 0 28 2 29 30 23 37 -7 75 24 85 67
9 39 -18 98 -47 104 -34 6 -96 3 -111 -6z m121 -23 c15 -32 15 -90 2 -116 -12
-21 -50 -25 -68 -7 -16 16 -16 135 1 141 30 13 54 6 65 -18z"/>
<path d="M2350 1790 c-10 -6 -11 -10 -2 -10 16 0 17 -131 0 -148 -9 -9 -5 -12
21 -12 28 0 31 2 21 14 -6 9 -11 40 -10 73 3 101 2 104 -30 83z"/>
<path d="M2400 1789 c-12 -9 -12 -10 4 -5 10 4 25 1 33 -5 15 -13 28 -6 18 10
-8 14 -36 14 -55 0z"/>
<path d="M2475 1790 c-3 -5 -1 -10 4 -10 16 0 14 -147 -1 -153 -7 -3 1 -6 17
-6 l30 -1 -3 90 c-3 80 -5 90 -22 90 -10 0 -22 -4 -25 -10z"/>
<path d="M2560 1790 c-10 -6 -11 -10 -2 -10 16 0 17 -131 0 -148 -9 -9 -4 -12
22 -12 26 0 31 3 22 12 -7 7 -12 37 -12 68 0 62 21 95 57 88 15 -3 18 -15 21
-77 2 -53 -1 -77 -10 -82 -8 -6 -3 -9 17 -9 l30 0 -5 78 c-4 43 -10 83 -14 90
-10 17 -56 15 -78 -5 -17 -15 -18 -15 -18 0 0 19 -8 21 -30 7z"/>
<path d="M3040 1790 c-11 -7 -12 -10 -2 -10 10 0 13 -19 10 -80 -3 -78 -2 -80
20 -80 13 0 21 4 18 8 -3 5 -6 45 -7 90 -2 83 -7 93 -39 72z"/>
<path d="M3089 1783 c-13 -16 -12 -17 4 -4 14 11 21 11 29 3 16 -16 28 -15 28
3 0 21 -44 19 -61 -2z"/>
<path d="M3458 1790 c-22 -13 -41 -74 -33 -102 11 -36 46 -68 75 -68 27 0 50
16 50 35 0 5 -5 2 -11 -7 -12 -22 -52 -24 -68 -4 -19 23 -25 83 -11 116 15 36
55 42 65 10 7 -22 25 -27 25 -7 0 33 -54 49 -92 27z"/>
<path d="M3608 1786 c-24 -18 -40 -65 -33 -98 8 -33 49 -68 79 -67 19 1 18 2
-4 8 -34 9 -56 69 -44 119 7 30 14 38 36 40 37 4 51 -26 46 -101 -4 -59 -4
-60 14 -37 27 33 24 101 -5 128 -26 25 -63 28 -89 8z"/>
<path d="M3950 1780 c-38 -38 -38 -102 0 -140 26 -26 72 -26 95 0 10 11 13 20
8 20 -6 0 -13 -7 -17 -15 -7 -18 -50 -20 -64 -2 -6 6 -13 24 -17 40 l-7 27 56
0 c55 0 56 0 56 29 0 54 -70 81 -110 41z m80 -16 c16 -40 13 -44 -35 -44 -48
0 -51 4 -35 44 7 19 17 26 35 26 18 0 28 -7 35 -26z"/>
<path d="M3264 1654 c3 -9 6 -18 6 -20 0 -2 7 -4 15 -4 13 0 13 3 3 20 -15 24
-33 27 -24 4z"/>
<path d="M2873 1613 c26 -2 68 -2 95 0 26 2 4 3 -48 3 -52 0 -74 -1 -47 -3z"/>
<path d="M2360 1448 c0 -4 8 -23 17 -42 13 -28 19 -33 30 -25 10 9 13 8 13 -2
1 -8 9 2 20 21 26 47 25 65 -1 20 l-20 -35 6 30 c4 20 3 25 -4 16 -7 -11 -11
-10 -20 5 -6 11 -10 15 -11 9 0 -5 4 -17 9 -25 6 -8 7 -18 4 -23 -3 -6 -14 5
-24 24 -10 19 -18 31 -19 27z"/>
<path d="M2530 1410 c0 -37 2 -40 28 -39 23 2 24 2 5 6 -25 5 -30 18 -10 26
10 4 10 6 0 6 -22 2 -14 29 10 34 19 4 18 4 -5 6 -26 1 -28 -2 -28 -39z"/>
<path d="M2802 1408 c1 -41 1 -41 5 -8 3 19 10 38 16 42 8 5 6 8 -5 8 -15 0
-18 -8 -16 -42z"/>
<path d="M3017 1442 c6 -4 13 -21 16 -37 l4 -30 2 32 c0 21 7 33 19 36 9 3 1
5 -18 6 -19 0 -30 -3 -23 -7z"/>
<path d="M3143 1410 c-1 -25 1 -37 4 -28 2 9 16 19 31 21 l27 4 -27 2 c-19 1
-28 7 -31 24 -2 12 -4 2 -4 -23z"/>
<path d="M3280 1410 c0 -37 2 -40 28 -39 23 2 24 2 5 6 -25 5 -30 18 -10 26
10 4 10 6 0 6 -22 2 -14 29 10 34 19 4 18 4 -5 6 -26 1 -28 -2 -28 -39z"/>
<path d="M3499 1433 c-13 -17 -13 -17 6 -3 11 8 22 16 24 17 2 2 0 3 -6 3 -6
0 -17 -8 -24 -17z"/>
<path d="M3770 1410 c0 -36 3 -40 24 -40 14 0 27 4 30 9 3 4 -6 6 -19 3 -22
-4 -25 -1 -25 26 0 17 6 33 13 35 7 3 5 6 -5 6 -14 1 -18 -7 -18 -39z"/>
<path d="M3910 1410 c0 -37 2 -40 28 -39 23 2 24 2 5 6 -25 5 -30 18 -10 26
10 4 10 6 0 6 -22 2 -14 29 10 34 19 4 18 4 -5 6 -26 1 -28 -2 -28 -39z"/>
<path d="M2668 1408 l-15 -33 37 0 37 0 -15 33 c-9 17 -19 32 -22 32 -3 0 -13
-15 -22 -32z m36 -3 c4 -10 -1 -15 -14 -15 -13 0 -18 5 -14 15 4 8 10 15 14
15 4 0 10 -7 14 -15z"/>
<path d="M3623 1424 c-13 -36 33 -68 62 -44 16 13 20 46 7 54 -4 2 -8 -8 -7
-22 0 -22 -4 -27 -25 -27 -21 0 -25 5 -25 28 1 31 -3 34 -12 11z"/>
<path d="M3822 1420 c7 -10 14 -18 15 -16 6 6 -9 36 -18 36 -5 0 -4 -9 3 -20z"/>
<path d="M2837 1413 c-4 -3 -7 -11 -7 -17 0 -6 5 -5 12 2 6 6 9 14 7 17 -3 3
-9 2 -12 -2z"/>
<path d="M3518 1373 c7 -3 16 -2 19 1 4 3 -2 6 -13 5 -11 0 -14 -3 -6 -6z"/>
</g>
</svg>
